<?xml version="1.0" encoding="UTF-8" standalone="no"?>
<svg
   xmlns:dc="http://purl.org/dc/elements/1.1/"
   xmlns:cc="http://creativecommons.org/ns#"
   xmlns:rdf="http://www.w3.org/1999/02/22-rdf-syntax-ns#"
   xmlns:svg="http://www.w3.org/2000/svg"
   xmlns="http://www.w3.org/2000/svg"
   xmlns:xlink="http://www.w3.org/1999/xlink"
   xmlns:sodipodi="http://sodipodi.sourceforge.net/DTD/sodipodi-0.dtd"
   xmlns:inkscape="http://www.inkscape.org/namespaces/inkscape"
   width="210mm"
   height="297mm"
   viewBox="0 0 210 297"
   version="1.1"
   id="svg8"
   inkscape:version="1.0 (4035a4fb49, 2020-05-01)"
   sodipodi:docname="pig.svg">
  <defs
     id="defs2">
    <linearGradient
       id="linearGradient2902"
       inkscape:collect="always">
      <stop
         id="stop2898"
         offset="0"
         style="stop-color:#ff8080;stop-opacity:1" />
      <stop
         id="stop2900"
         offset="1"
         style="stop-color:#ffffff;stop-opacity:1" />
    </linearGradient>
    <linearGradient
       inkscape:collect="always"
       id="linearGradient2890">
      <stop
         style="stop-color:#ff8080;stop-opacity:1"
         offset="0"
         id="stop2886" />
      <stop
         id="stop2904"
         offset="0.84600437"
         style="stop-color:#ffffff;stop-opacity:1" />
      <stop
         style="stop-color:#ffffff;stop-opacity:1"
         offset="1"
         id="stop2888" />
    </linearGradient>
    <linearGradient
       id="linearGradient878"
       inkscape:collect="always">
      <stop
         id="stop874"
         offset="0"
         style="stop-color:#000000;stop-opacity:1;" />
      <stop
         id="stop876"
         offset="1"
         style="stop-color:#000000;stop-opacity:0;" />
    </linearGradient>
    <linearGradient
       gradientUnits="userSpaceOnUse"
       y2="23.582204"
       x2="44.340934"
       y1="23.582204"
       x1="37.933052"
       id="linearGradient880"
       xlink:href="#linearGradient878"
       inkscape:collect="always" />
    <linearGradient
       inkscape:collect="always"
       xlink:href="#linearGradient2902"
       id="linearGradient2896"
       gradientUnits="userSpaceOnUse"
       x1="94.857948"
       y1="37.207619"
       x2="94.921967"
       y2="65.051521" />
    <linearGradient
       y2="22.425306"
       x2="111.07475"
       y1="68.637009"
       x1="110.77299"
       gradientUnits="userSpaceOnUse"
       id="linearGradient859"
       xlink:href="#linearGradient2890"
       inkscape:collect="always" />
  </defs>
  <sodipodi:namedview
     inkscape:snap-global="false"
     id="base"
     pagecolor="#ffffff"
     bordercolor="#666666"
     borderopacity="1.0"
     inkscape:pageopacity="0.0"
     inkscape:pageshadow="2"
     inkscape:zoom="1.3569345"
     inkscape:cx="378.91781"
     inkscape:cy="291.29204"
     inkscape:document-units="mm"
     inkscape:current-layer="layer1"
     inkscape:document-rotation="0"
     showgrid="false"
     inkscape:window-width="1274"
     inkscape:window-height="728"
     inkscape:window-x="53"
     inkscape:window-y="0"
     inkscape:window-maximized="0" />
  <metadata
     id="metadata5">
    <rdf:RDF>
      <cc:Work
         rdf:about="">
        <dc:format>image/svg+xml</dc:format>
        <dc:type
           rdf:resource="http://purl.org/dc/dcmitype/StillImage" />
        <dc:title />
      </cc:Work>
    </rdf:RDF>
  </metadata>
  <g
     inkscape:label="Layer 1"
     inkscape:groupmode="layer"
     id="layer1">
    <rect
       style="opacity:0.999967;fill:#efd6ab;fill-opacity:1;stroke:none;stroke-width:0.353375;stroke-miterlimit:4;stroke-dasharray:none"
       id="rect930-2-2"
       width="40.75209"
       height="40.875587"
       x="57.896778"
       y="82.124886"
       inkscape:export-xdpi="19.94499"
       inkscape:export-ydpi="19.94499" />
    <rect
       inkscape:export-ydpi="19.944988"
       inkscape:export-xdpi="19.944988"
       y="82.186623"
       x="11.699165"
       height="40.875584"
       width="40.75209"
       id="rect930-2"
       style="opacity:0.999967;fill:#efd6ab;fill-opacity:1;stroke:none;stroke-width:0.353375;stroke-miterlimit:4;stroke-dasharray:none" />
    <rect
       style="opacity:0.999967;fill:#efd6ab;stroke:none;stroke-width:0.557961;stroke-miterlimit:4;stroke-dasharray:none;fill-opacity:1"
       id="rect930"
       width="64.345406"
       height="64.540398"
       x="78.384399"
       y="12.284122"
       inkscape:export-xdpi="25.263655"
       inkscape:export-ydpi="25.263655" />
    <path
       sodipodi:nodetypes="ccccccccccccc"
       id="path835"
       style="opacity:0.999967;fill:#ffaaaa;fill-opacity:1;stroke:#000000;stroke-width:0.7;stroke-opacity:1;stroke-miterlimit:4;stroke-dasharray:none"
       d="m 52.655934,24.157622 c -3.474504,0.534539 -6.078719,4.919916 -6.078719,4.919916 -1.749358,-0.63381 -3.639865,-0.961144 -5.551297,-0.961185 -2.154208,8e-6 -4.278394,0.415701 -6.201957,1.213693 0,0 -4.632202,-6.956244 -6.770358,-4.818088 1.069078,2.672695 1.758002,4.676537 1.758002,4.676537 l -0.380154,4.141998 c -1.424639,1.826658 -2.182019,3.951452 -2.182141,6.121901 1.56e-4,6.260557 6.168132,11.335654 13.776608,11.335585 7.608477,7e-5 13.776454,-5.075027 13.77661,-11.335585 -2e-4,-2.450982 -0.965819,-4.835891 -2.752115,-6.797242 L 51.685,28.673657 c 0,0 0.436395,-1.84334 0.970934,-4.516035 z"
       inkscape:export-xdpi="96"
       inkscape:export-ydpi="96" />
    <ellipse
       style="opacity:0.999967;fill:#e9afaf;fill-opacity:1;stroke-width:0.7;stroke:#000000;stroke-opacity:1;stroke-miterlimit:4;stroke-dasharray:none"
       id="path833"
       cx="41.159508"
       cy="45.435818"
       rx="8.8198938"
       ry="6.1471992"
       inkscape:export-xdpi="96"
       inkscape:export-ydpi="96" />
    <ellipse
       style="opacity:0.999967;fill:#ffffff;fill-opacity:1;stroke-width:0.7;stroke:#000000;stroke-opacity:1;stroke-miterlimit:4;stroke-dasharray:none"
       id="path837"
       cx="38.486816"
       cy="45.703087"
       rx="2.1381562"
       ry="2.6726952"
       inkscape:export-xdpi="96"
       inkscape:export-ydpi="96" />
    <ellipse
       ry="2.6726952"
       rx="2.1381562"
       cy="45.703087"
       cx="44.366741"
       id="path837-9"
       style="opacity:0.999967;fill:#ffffff;fill-opacity:1;stroke-width:0.7;stroke:#000000;stroke-opacity:1;stroke-miterlimit:4;stroke-dasharray:none"
       inkscape:export-xdpi="96"
       inkscape:export-ydpi="96" />
    <ellipse
       style="opacity:0.999967;fill:#ffffff;fill-opacity:1;stroke-width:0.7;stroke:#000000;stroke-opacity:1;stroke-miterlimit:4;stroke-dasharray:none"
       id="path854"
       cx="35.680481"
       cy="36.081387"
       rx="2.5390604"
       ry="1.8708867"
       inkscape:export-xdpi="96"
       inkscape:export-ydpi="96" />
    <ellipse
       ry="1.8708867"
       rx="2.5390604"
       cy="36.081383"
       cx="46.237629"
       id="path854-5"
       style="opacity:0.999967;fill:#ffffff;fill-opacity:1;stroke-width:0.7;stroke:#000000;stroke-opacity:1;stroke-miterlimit:4;stroke-dasharray:none"
       inkscape:export-xdpi="96"
       inkscape:export-ydpi="96" />
    <path
       id="rect39"
       style="opacity:0.999967;mix-blend-mode:normal;fill:url(#linearGradient859);fill-opacity:1;stroke:#916e6e;stroke-width:2.574;stroke-miterlimit:4;stroke-dasharray:none;stroke-opacity:1"
       d="m 89.147011,23.171162 c 0.844312,0.551552 0.837571,3.749446 0.941546,6.522688 -0.875627,0.276915 -1.593228,0.571636 -1.952852,0.868466 -0.59263,1.24125 -2.434995,5.616724 -2.434995,5.616724 l -5.943306,2.619864 0.326078,8.03 3.812688,1.21519 c 0,0 3.938521,0.3937 6.668328,1.63495 1.427678,1.615712 4.211158,4.843586 6.774262,6.793095 0.04153,0.816461 0.09842,1.719472 0.178284,2.736319 l 0.991672,7.831964 h 5.793444 L 103.81433,59.2907 c 3.25442,1.193678 7.39822,2.118729 12.28659,1.973782 3.93617,0 9.257,-1.3053 13.33562,-2.509334 l -0.82992,8.946491 h 5.87716 l 1.4428,-10.249844 c 0,0 0.92656,-7.591919 0.92656,-10.570914 0,-1.246475 -0.0169,-2.281521 -0.0372,-3.201474 l 0.19792,-1.97378 -0.007,-4.952216 c 2.31535,3.348602 2.19214,6.152926 2.9221,10.358162 l 1.68429,-0.46061 c -0.44811,-3.009551 -0.58232,-7.721784 -2.46671,-11.794412 -1.16991,-1.949861 -2.33984,-3.202677 -2.33984,-3.202677 -0.97493,-0.922607 -4.47231,-3.212445 -6.28678,-3.766689 -3.32967,-1.01707 -7.1628,-1.838248 -15.40164,-1.838248 -9.28402,-0.44974 -15.203286,1.136137 -17.808736,2.06589 v -0.0013 c 0,0 -0.781878,0.126498 -1.850533,0.325015 L 92.993012,24.24489 c -0.27279,0.06248 -3.845761,-1.073737 -3.845761,-1.073737 z"
       sodipodi:nodetypes="ccccccccccccccccccscccccccsccccccc" />
    <text
       inkscape:export-ydpi="96"
       inkscape:export-xdpi="96"
       transform="scale(0.93308196,1.0717172)"
       id="text49"
       y="29.989548"
       x="36.86993"
       style="font-style:normal;font-variant:normal;font-weight:normal;font-stretch:normal;font-size:13.5806px;line-height:1.25;font-family:'Berlin Sans FB Demi';-inkscape-font-specification:'Berlin Sans FB Demi';fill:#ffaaaa;fill-opacity:1;stroke:#ff0000;stroke-width:0.7;stroke-opacity:1;stroke-miterlimit:4;stroke-dasharray:none"
       xml:space="preserve"><tspan
         style="font-style:normal;font-variant:normal;font-weight:normal;font-stretch:normal;font-family:'Berlin Sans FB Demi';-inkscape-font-specification:'Berlin Sans FB Demi';fill:#ffaaaa;fill-opacity:1;stroke:#ff0000;stroke-width:0.7;stroke-opacity:1;stroke-miterlimit:4;stroke-dasharray:none"
         y="29.989548"
         x="36.86993"
         id="tspan47"
         sodipodi:role="line">$$</tspan></text>
    <path
       id="rect45-1"
       style="opacity:0.999967;fill:#e9afaf;stroke:none;stroke-width:0.280665"
       d="m 49.548825,9.6828156 2.041242,-3.109211 c 0,0 2.516636,-1.0829911 4.661483,-0.6930191 1.559889,1.3649031 2.5352,2.9058681 2.5352,2.9058681 l 0.228178,1.8092844 -4.804055,0.682451 -0.254293,-2.0163494 -1.675716,-0.129449 z"
       sodipodi:nodetypes="ccccccccc" />
    <path
       id="rect45-1-2"
       style="opacity:0.999967;fill:#e9afaf;stroke:none;stroke-width:0.290857"
       d="m 161.58192,2.9999226 2.30523,3.568333 1.78437,-3.094233 1.98857,1.895451 1.79245,-2.02971 2.19494,1.728142 -0.35591,2.344498 -1.71362,-0.916588 -2.11262,2.942033 -1.41169,-2.824381 -1.87154,3.6456664 -2.97635,-2.2535614 z"
       sodipodi:nodetypes="ccccccccccccc" />
    <text
       xml:space="preserve"
       style="font-style:normal;font-variant:normal;font-weight:normal;font-stretch:normal;font-size:32.9288px;line-height:1.25;font-family:'Berlin Sans FB Demi';-inkscape-font-specification:'Berlin Sans FB Demi';fill:url(#linearGradient2896);fill-opacity:1;stroke:#916e6e;stroke-width:2.13699999;stroke-miterlimit:4;stroke-dasharray:none;stroke-opacity:1"
       x="85.328209"
       y="62.17551"
       id="text49-2"
       transform="scale(1.1899955,0.84033932)"
       inkscape:export-xdpi="96"
       inkscape:export-ydpi="96"><tspan
         sodipodi:role="line"
         id="tspan47-4"
         x="85.328209"
         y="62.17551"
         style="font-style:normal;font-variant:normal;font-weight:normal;font-stretch:normal;font-family:'Franklin Gothic Heavy';-inkscape-font-specification:'Franklin Gothic Heavy, ';fill:url(#linearGradient2896);fill-opacity:1;stroke:#916e6e;stroke-width:2.13699999;stroke-miterlimit:4;stroke-dasharray:none;stroke-opacity:1">$</tspan></text>
    <g
       id="g962">
      <path
         d="m 32.07241,85.988763 c -6.210075,0.0016 -11.317544,4.626025 -11.587406,10.491348 h -0.01137 v 0.476456 0.0031 4.711343 h 4.582149 v -2.41019 -0.0021 -0.386022 h 0.0072 c 0.167812,-4.750205 3.343529,-8.49534 7.205244,-8.496639 h 0.0016 c 3.862461,8.2e-5 7.039986,3.745497 7.207829,8.496639 h 0.0072 v 0.386022 2.41226 h 4.191992 v -4.714445 -0.476456 h -0.01137 C 43.395584,90.613655 38.286266,85.988866 32.074992,85.988763 Z"
         style="opacity:0.999967;fill:#d4aa00;stroke:#2b2200;stroke-width:1.6;stroke-miterlimit:4;stroke-dasharray:none;stroke-opacity:1"
         id="path864" />
      <rect
         y="101.97771"
         x="20.473537"
         height="16.768801"
         width="23.203344"
         id="rect898"
         style="opacity:0.999967;fill:#d4aa00;stroke:#2b2200;stroke-width:1.4;stroke-miterlimit:4;stroke-dasharray:none;stroke-opacity:1" />
      <ellipse
         ry="3.1852806"
         rx="2.9247911"
         cy="108.47775"
         cx="32.367687"
         id="path900"
         style="opacity:0.999967;fill:#2b2200;stroke:#916e6e;stroke-width:0;stroke-miterlimit:4;stroke-dasharray:none;fill-opacity:1" />
      <rect
         y="109.48772"
         x="30.36651"
         height="5.7490425"
         width="3.8484092"
         id="rect902"
         style="opacity:0.999967;fill:#2b2200;stroke:#916e6e;stroke-width:0;stroke-miterlimit:4;stroke-dasharray:none" />
    </g>
    <g
       id="g968">
      <path
         id="path864-0"
         style="opacity:0.999967;fill:#d4aa00;stroke:#2b2200;stroke-width:1.5;stroke-miterlimit:4;stroke-dasharray:none;stroke-opacity:1"
         d="m 69.259026,91.131901 c -3.709219,4.980635 -3.052727,11.839249 1.489271,15.560159 l -0.0068,0.009 0.38205,0.28467 0.0025,0.002 3.777886,2.81501 2.737819,-3.67429 -1.93266,-1.44008 -0.0017,-0.001 -0.309538,-0.23064 0.0042,-0.006 c -3.708757,-2.97281 -4.814393,-7.757035 -2.50807,-10.854409 l 9.83e-4,-0.0013 c 2.307876,-3.097147 7.209779,-3.407235 11.119866,-0.703032 l 0.0043,-0.0058 0.309538,0.230646 1.93432,1.441317 2.504701,-3.361432 -3.780372,-2.816864 -0.382059,-0.284684 -0.0068,0.0092 C 79.733122,84.815504 72.971829,86.149221 69.260527,91.129799 Z" />
      <rect
         style="opacity:0.999967;fill:#d4aa00;stroke:#2b2200;stroke-width:1.6;stroke-miterlimit:4;stroke-dasharray:none;stroke-opacity:1"
         id="rect898-8"
         width="23.203344"
         height="16.768801"
         x="66.977707"
         y="101.9778" />
      <ellipse
         style="opacity:0.999967;fill:#2b2200;stroke:#916e6e;stroke-width:0;stroke-miterlimit:4;stroke-dasharray:none;fill-opacity:1"
         id="path900-2"
         cx="78.871857"
         cy="108.47783"
         rx="2.9247911"
         ry="3.1852806" />
      <rect
         style="opacity:0.999967;fill:#2b2200;stroke:#916e6e;stroke-width:0;stroke-miterlimit:4;stroke-dasharray:none"
         id="rect902-3"
         width="3.8484092"
         height="5.7490425"
         x="76.870682"
         y="109.48779" />
    </g>
  </g>
</svg>
