<?xml version="1.0" encoding="UTF-8" standalone="no"?>
<!-- Created with Inkscape (http://www.inkscape.org/) -->

<svg
   width="210mm"
   height="297mm"
   viewBox="0 0 210 297"
   version="1.1"
   id="svg5"
   xml:space="preserve"
   inkscape:version="1.2.2 (b0a8486541, 2022-12-01)"
   sodipodi:docname="pigcoin.svg"
   xmlns:inkscape="http://www.inkscape.org/namespaces/inkscape"
   xmlns:sodipodi="http://sodipodi.sourceforge.net/DTD/sodipodi-0.dtd"
   xmlns:xlink="http://www.w3.org/1999/xlink"
   xmlns="http://www.w3.org/2000/svg"
   xmlns:svg="http://www.w3.org/2000/svg"><sodipodi:namedview
     id="namedview7"
     pagecolor="#ffffff"
     bordercolor="#666666"
     borderopacity="1.0"
     inkscape:showpageshadow="2"
     inkscape:pageopacity="0.0"
     inkscape:pagecheckerboard="0"
     inkscape:deskcolor="#d1d1d1"
     inkscape:document-units="mm"
     showgrid="false"
     inkscape:zoom="0.73673541"
     inkscape:cx="318.97476"
     inkscape:cy="470.99677"
     inkscape:window-width="1920"
     inkscape:window-height="1049"
     inkscape:window-x="2560"
     inkscape:window-y="0"
     inkscape:window-maximized="1"
     inkscape:current-layer="g4776" /><defs
     id="defs2"><linearGradient
       y2="22.425306"
       x2="111.07475"
       y1="68.637009"
       x1="110.77299"
       gradientUnits="userSpaceOnUse"
       id="linearGradient859"
       xlink:href="#linearGradient2890"
       inkscape:collect="always"
       gradientTransform="matrix(0.8601165,0,0,0.8601165,5.117346,10.179715)" /><linearGradient
       inkscape:collect="always"
       id="linearGradient2890"><stop
         style="stop-color:#ff8080;stop-opacity:1"
         offset="0"
         id="stop2886" /><stop
         id="stop2904"
         offset="0.85848391"
         style="stop-color:#ffffff;stop-opacity:1" /><stop
         style="stop-color:#ffffff;stop-opacity:1"
         offset="1"
         id="stop2888" /></linearGradient><linearGradient
       inkscape:collect="always"
       xlink:href="#linearGradient2902"
       id="linearGradient2896"
       gradientUnits="userSpaceOnUse"
       x1="94.857948"
       y1="37.207619"
       x2="94.921967"
       y2="65.051521"
       gradientTransform="matrix(0.86011651,0,0,0.86011648,6.1235273,9.8607494)" /><linearGradient
       id="linearGradient2902"
       inkscape:collect="always"><stop
         id="stop2898"
         offset="0"
         style="stop-color:#ff8080;stop-opacity:1" /><stop
         id="stop2900"
         offset="1"
         style="stop-color:#ffffff;stop-opacity:1" /></linearGradient><linearGradient
       inkscape:collect="always"
       xlink:href="#linearGradient2902"
       id="linearGradient998"
       gradientUnits="userSpaceOnUse"
       gradientTransform="matrix(0.86011651,0,0,0.86011648,6.1235273,9.8607494)"
       x1="94.857948"
       y1="37.207619"
       x2="94.921967"
       y2="65.051521" /></defs><g
     inkscape:label="Layer 1"
     inkscape:groupmode="layer"
     id="layer1"><g
       id="g4776"
       transform="translate(2.857935,-5.8208336)"><path
         id="rect39"
         style="opacity:0.999967;mix-blend-mode:normal;fill:url(#linearGradient859);fill-opacity:1;stroke:#916e6e;stroke-width:1.43984;stroke-miterlimit:4;stroke-dasharray:none;stroke-opacity:1"
         d="m 81.794161,30.109618 c 0.726206,0.4744 0.720408,3.22496 0.809835,5.61027 -0.753136,0.23817 -1.370364,0.49169 -1.679679,0.74699 -0.509731,1.06762 -2.094384,4.83104 -2.094384,4.83104 l -5.11193,2.253366 0.280466,6.90674 3.27935,1.0452 c 0,0 3.387595,0.33863 5.73554,1.40626 1.227971,1.3897 3.622088,4.16605 5.826658,5.84285 0.03576,0.70226 0.08466,1.47895 0.153342,2.35356 l 0.852956,6.7364 h 4.983035 l -0.419599,-6.66567 c 2.799199,1.02671 6.363339,1.82236 10.567919,1.69768 3.38556,0 7.9621,-1.12271 11.47019,-2.15831 l -0.71384,7.69502 h 5.05505 l 1.24098,-8.81607 c 0,0 0.79695,-6.52992 0.79695,-9.09221 0,-1.07211 -0.0145,-1.96237 -0.032,-2.75363 l 0.17022,-1.69769 -0.006,-4.25949 c 1.99149,2.88019 1.8855,5.29225 2.51334,8.90923 l 1.4487,-0.39618 c -0.38543,-2.58856 -0.50086,-6.64162 -2.12167,-10.144566 -1.00624,-1.6771 -2.01253,-2.75467 -2.01253,-2.75467 -0.83856,-0.79354 -3.8467,-2.76307 -5.40736,-3.23978 -2.8639,-0.87481 -6.16085,-1.58112 -13.2472,-1.58112 -7.98534,-0.38682 -13.076607,0.97721 -15.317593,1.77692 v -8.7e-4 c 0,0 -0.672511,0.10877 -1.591672,0.27955 l -2.121048,-3.60703 c -0.234631,0.0538 -3.307801,-0.92354 -3.307801,-0.92354 z"
         sodipodi:nodetypes="ccccccccccccccccccscccccccsccccccc"
         inkscape:export-filename="money-pig.png"
         inkscape:export-xdpi="96"
         inkscape:export-ydpi="96" /><text
         xml:space="preserve"
         style="font-style:normal;font-variant:normal;font-weight:900;font-stretch:normal;font-size:21.8469px;line-height:1.35;font-family:'Noto Sans Gurmukhi UI';-inkscape-font-specification:'Noto Sans Gurmukhi UI Heavy';fill:url(#linearGradient2896);fill-opacity:1;stroke:#916e6e;stroke-width:2.0961;stroke-linecap:square;stroke-linejoin:miter;stroke-miterlimit:4;stroke-dasharray:none;stroke-opacity:1;paint-order:stroke markers fill"
         x="79.515739"
         y="63.338932"
         id="text49-2"
         transform="scale(1.1899955,0.84033932)"
         inkscape:export-xdpi="96"
         inkscape:export-ydpi="96"><tspan
           sodipodi:role="line"
           id="tspan47-4"
           x="79.515739"
           y="63.338932"
           style="font-style:normal;font-variant:normal;font-weight:900;font-stretch:normal;font-size:21.8469px;font-family:'Noto Sans Kannada UI';-inkscape-font-specification:'Noto Sans Kannada UI Heavy';fill:url(#linearGradient2896);fill-opacity:1;stroke:#916e6e;stroke-width:2.0961;stroke-linecap:square;stroke-linejoin:miter;stroke-miterlimit:4;stroke-dasharray:none;stroke-opacity:1;paint-order:stroke markers fill">$</tspan></text><text
         xml:space="preserve"
         style="font-size:8.46667px;line-height:1.25;font-family:sans-serif;-inkscape-font-specification:sans-serif;stroke-width:0.264583"
         x="65.353218"
         y="79.938408"
         id="text3768"><tspan
           sodipodi:role="line"
           id="tspan3766"
           style="font-size:8.46667px;stroke-width:0.264583"
           x="65.353218"
           y="79.938408">Receipt for services</tspan></text></g><g
       id="g4769"
       transform="translate(-2.4349122,3.1750001)"><g
         id="g4925"><text
           xml:space="preserve"
           style="font-size:5.64444px;line-height:1.25;font-family:sans-serif;-inkscape-font-specification:sans-serif;stroke-width:0.264583"
           x="54.105564"
           y="94.353996"
           id="text3772"><tspan
             sodipodi:role="line"
             id="tspan3770"
             style="stroke-width:0.264583"
             x="54.105564"
             y="94.353996">Anton Orlichenko</tspan><tspan
             sodipodi:role="line"
             style="stroke-width:0.264583"
             x="54.105564"
             y="101.40955"
             id="tspan4528">David Hughes</tspan><tspan
             sodipodi:role="line"
             style="stroke-width:0.264583"
             x="54.105564"
             y="108.4651"
             id="tspan3776">Building and maintaining hunimal.org and zikzok.org</tspan><tspan
             sodipodi:role="line"
             style="stroke-width:0.264583"
             x="54.105564"
             y="115.52065"
             id="tspan4522" /><tspan
             sodipodi:role="line"
             style="stroke-width:0.264583"
             x="54.105564"
             y="122.57619"
             id="tspan4518">10/10/22</tspan><tspan
             sodipodi:role="line"
             style="stroke-width:0.264583"
             x="54.105564"
             y="129.63174"
             id="tspan3774">$100</tspan></text><text
           xml:space="preserve"
           style="font-size:5.64444px;line-height:1.25;font-family:sans-serif;-inkscape-font-specification:sans-serif;stroke-width:0.264583"
           x="24.203152"
           y="94.348351"
           id="text4506"><tspan
             sodipodi:role="line"
             id="tspan4504"
             style="font-style:normal;font-variant:normal;font-weight:bold;font-stretch:normal;font-family:sans-serif;-inkscape-font-specification:'sans-serif Bold';stroke-width:0.264583"
             x="24.203152"
             y="94.348351">From:</tspan><tspan
             sodipodi:role="line"
             style="font-style:normal;font-variant:normal;font-weight:bold;font-stretch:normal;font-family:sans-serif;-inkscape-font-specification:'sans-serif Bold';stroke-width:0.264583"
             x="24.203152"
             y="101.4039"
             id="tspan4526">To:</tspan><tspan
             sodipodi:role="line"
             style="font-style:normal;font-variant:normal;font-weight:bold;font-stretch:normal;font-family:sans-serif;-inkscape-font-specification:'sans-serif Bold';stroke-width:0.264583"
             x="24.203152"
             y="108.45945"
             id="tspan4508">Service:</tspan><tspan
             sodipodi:role="line"
             style="font-style:normal;font-variant:normal;font-weight:bold;font-stretch:normal;font-family:sans-serif;-inkscape-font-specification:'sans-serif Bold';stroke-width:0.264583"
             x="24.203152"
             y="115.515"
             id="tspan4520" /><tspan
             sodipodi:role="line"
             style="font-style:normal;font-variant:normal;font-weight:bold;font-stretch:normal;font-family:sans-serif;-inkscape-font-specification:'sans-serif Bold';stroke-width:0.264583"
             x="24.203152"
             y="122.57055"
             id="tspan4510">Date:</tspan><tspan
             sodipodi:role="line"
             style="font-style:normal;font-variant:normal;font-weight:bold;font-stretch:normal;font-family:sans-serif;-inkscape-font-specification:'sans-serif Bold';stroke-width:0.264583"
             x="24.203152"
             y="129.6261"
             id="tspan4512">Amount:</tspan><tspan
             sodipodi:role="line"
             style="font-style:normal;font-variant:normal;font-weight:bold;font-stretch:normal;font-family:sans-serif;-inkscape-font-specification:'sans-serif Bold';stroke-width:0.264583"
             x="24.203152"
             y="136.68166"
             id="tspan4524" /></text></g></g><g
       id="g4792"
       transform="translate(9.9416556,3.1750001)"><g
         inkscape:label="Layer 1"
         id="layer1-6"
         transform="translate(-1.7379903,58.215156)"><rect
           style="fill:#ffffff;fill-opacity:1;stroke:none;stroke-width:0.41143;stroke-miterlimit:4;stroke-dasharray:none"
           id="rect1030"
           width="32.072342"
           height="32.072342"
           x="21.071318"
           y="81.64547"
           inkscape:export-xdpi="50.68541"
           inkscape:export-ydpi="50.68541" /><path
           id="rect897-1-1"
           style="fill:#f0b6a1;fill-opacity:1;stroke:#000000;stroke-width:1.95024;stroke-miterlimit:4;stroke-dasharray:none"
           d="m 98.863281,320.28711 c -2.522106,0.0283 -3.736328,0.66992 -3.736328,0.66992 -9.858134,2.36595 -12.259765,6.50781 -12.259765,6.50781 0,0 10.646385,5.78393 14.195312,10.91016 1.70795,4.14788 2.331643,7.72693 1.525113,16.48354 -0.957671,7.1131 -2.184481,8.85259 -2.618867,11.63758 -0.1315,0.84309 -1.099602,7.30134 -1.099048,8.47151 0.01204,23.37221 22.179962,42.13242 45.552182,42.12612 23.37221,-0.006 45.9719,-19.56595 42.3164,-43.46258 l -1.26269,-8.2544 c -0.44725,-2.92376 -0.71845,-6.89094 -1.48193,-11.5167 -0.29504,-8.22649 2.57859,-9.47892 4.25634,-13.55345 3.54892,-5.12623 14.19727,-10.91016 14.19727,-10.91016 0,0 -2.40359,-4.1399 -12.26172,-6.50586 0,0 -6.3451,-3.35114 -20.14649,4.92969 -2.8327,2.26616 -5.05513,5.65234 -6.75195,9.06055 -5.87385,-2.9264 -12.3477,-4.44691 -18.91016,-4.44141 -6.10894,0.006 -12.14427,1.33357 -17.6914,3.89258 -1.76374,-3.8556 -4.1943,-7.87106 -7.41211,-10.44531 -7.76328,-4.65797 -13.16745,-5.636 -16.410159,-5.59961 z"
           transform="scale(0.26458333)"
           sodipodi:nodetypes="sccccsccsscccccccccss" /><path
           style="fill:#ffffff;fill-opacity:1;stroke:#000000;stroke-width:0.526;stroke-miterlimit:4;stroke-dasharray:none"
           id="path835"
           sodipodi:type="arc"
           sodipodi:cx="32.802544"
           sodipodi:cy="94.346657"
           sodipodi:rx="2.8804967"
           sodipodi:ry="2.8804967"
           sodipodi:start="0"
           sodipodi:end="6.2821032"
           sodipodi:open="true"
           sodipodi:arc-type="arc"
           d="m 35.68304,94.346657 a 2.8804967,2.8804967 0 0 1 -2.879717,2.880496 2.8804967,2.8804967 0 0 1 -2.881276,-2.878938 2.8804967,2.8804967 0 0 1 2.878159,-2.882054 2.8804967,2.8804967 0 0 1 2.882833,2.877379" /><path
           d="m 43.913032,94.1409 a 2.8804967,2.8804967 0 0 1 -2.879717,2.880496 2.8804967,2.8804967 0 0 1 -2.881276,-2.878938 2.8804967,2.8804967 0 0 1 2.878159,-2.882054 2.8804967,2.8804967 0 0 1 2.882833,2.877379"
           sodipodi:arc-type="arc"
           sodipodi:open="true"
           sodipodi:end="6.2821032"
           sodipodi:start="0"
           sodipodi:ry="2.8804967"
           sodipodi:rx="2.8804967"
           sodipodi:cy="94.1409"
           sodipodi:cx="41.032536"
           sodipodi:type="arc"
           id="path835-6"
           style="fill:#ffffff;fill-opacity:1;stroke:#000000;stroke-width:0.526;stroke-miterlimit:4;stroke-dasharray:none" /><path
           style="fill:#ffdfd4;fill-opacity:1;stroke:#000000;stroke-width:0.49603;stroke-miterlimit:4;stroke-dasharray:none"
           id="path835-6-9"
           sodipodi:type="arc"
           sodipodi:cx="36.88876"
           sodipodi:cy="103.09565"
           sodipodi:rx="5.5319796"
           sodipodi:ry="3.9805868"
           sodipodi:start="0"
           sodipodi:end="6.2821032"
           sodipodi:open="true"
           sodipodi:arc-type="arc"
           d="m 42.420739,103.09565 a 5.5319796,3.9805868 0 0 1 -5.530483,3.98059 5.5319796,3.9805868 0 0 1 -5.533475,-3.97844 5.5319796,3.9805868 0 0 1 5.527489,-3.982736 5.5319796,3.9805868 0 0 1 5.536466,3.976276" /><path
           d="m 35.986175,103.35733 a 0.92079109,1.5758607 0 0 1 -0.920542,1.57586 0.92079109,1.5758607 0 0 1 -0.92104,-1.57501 0.92079109,1.5758607 0 0 1 0.920044,-1.57671 0.92079109,1.5758607 0 0 1 0.921537,1.57416"
           sodipodi:arc-type="arc"
           sodipodi:open="true"
           sodipodi:end="6.2821032"
           sodipodi:start="0"
           sodipodi:ry="1.5758607"
           sodipodi:rx="0.92079109"
           sodipodi:cy="103.35733"
           sodipodi:cx="35.065384"
           sodipodi:type="arc"
           id="path835-2"
           style="fill:#000000;fill-opacity:1;stroke:#000000;stroke-width:0.0630984" /><path
           style="fill:#000000;fill-opacity:1;stroke:#000000;stroke-width:0.0630984"
           id="path835-2-1"
           sodipodi:type="arc"
           sodipodi:cx="38.978123"
           sodipodi:cy="103.35733"
           sodipodi:rx="0.92079109"
           sodipodi:ry="1.5758607"
           sodipodi:start="0"
           sodipodi:end="6.2821032"
           sodipodi:open="true"
           sodipodi:arc-type="arc"
           d="m 39.898914,103.35733 a 0.92079109,1.5758607 0 0 1 -0.920542,1.57586 0.92079109,1.5758607 0 0 1 -0.92104,-1.57501 0.92079109,1.5758607 0 0 1 0.920043,-1.57671 0.92079109,1.5758607 0 0 1 0.921538,1.57416" /><path
           d="m 42.335272,95.525375 a 1.5478501,1.4526746 0 0 1 -1.547431,1.452675 1.5478501,1.4526746 0 0 1 -1.548269,-1.451889 1.5478501,1.4526746 0 0 1 1.546594,-1.45346 1.5478501,1.4526746 0 0 1 1.549105,1.451102"
           sodipodi:arc-type="arc"
           sodipodi:open="true"
           sodipodi:end="6.2821032"
           sodipodi:start="0"
           sodipodi:ry="1.4526746"
           sodipodi:rx="1.5478501"
           sodipodi:cy="95.525375"
           sodipodi:cx="40.787422"
           sodipodi:type="arc"
           id="path835-2-1-2"
           style="fill:#000000;fill-opacity:1;stroke:#000000;stroke-width:0.0785467" /><path
           style="fill:#000000;fill-opacity:1;stroke:#000000;stroke-width:0.0785466"
           id="path835-2-1-2-2"
           sodipodi:type="arc"
           sodipodi:cx="-32.97842"
           sodipodi:cy="95.684677"
           sodipodi:rx="1.5478503"
           sodipodi:ry="1.4526746"
           sodipodi:start="0"
           sodipodi:end="6.2821032"
           sodipodi:open="true"
           sodipodi:arc-type="arc"
           d="m -31.43057,95.684677 a 1.5478503,1.4526746 0 0 1 -1.547432,1.452675 1.5478503,1.4526746 0 0 1 -1.548268,-1.451889 1.5478503,1.4526746 0 0 1 1.546594,-1.45346 1.5478503,1.4526746 0 0 1 1.549105,1.451102"
           transform="scale(-1,1)" /></g><text
         xml:space="preserve"
         style="font-size:5.64444px;line-height:1.25;font-family:sans-serif;-inkscape-font-specification:sans-serif;stroke-width:0.264583"
         x="67.87442"
         y="152.14449"
         id="text4730"><tspan
           sodipodi:role="line"
           id="tspan4728"
           style="stroke-width:0.264583"
           x="67.87442"
           y="152.14449">&quot;Money should really be viewed through </tspan><tspan
           sodipodi:role="line"
           style="stroke-width:0.264583"
           x="67.87442"
           y="159.20004"
           id="tspan4732">the lens of information theory&quot;</tspan><tspan
           sodipodi:role="line"
           style="stroke-width:0.264583"
           x="67.87442"
           y="166.25558"
           id="tspan4734">- Elon Musk</tspan></text></g><g
       id="g4798"
       transform="translate(11.939089,10.054167)"><text
         xml:space="preserve"
         style="font-size:5.64444px;line-height:1.25;font-family:sans-serif;-inkscape-font-specification:sans-serif;stroke-width:0.264583"
         x="94.765755"
         y="184.94835"
         id="text4744"><tspan
           sodipodi:role="line"
           id="tspan4742"
           style="text-align:center;text-anchor:middle;stroke-width:0.264583"
           x="94.765755"
           y="184.94835">aorliche@gmail.com</tspan><tspan
           sodipodi:role="line"
           style="text-align:center;text-anchor:middle;stroke-width:0.264583"
           x="94.765755"
           y="192.00391"
           id="tspan4748">507-254-1372</tspan><tspan
           sodipodi:role="line"
           style="text-align:center;text-anchor:middle;fill:#0000ff;stroke-width:0.264583"
           x="94.765755"
           y="199.05945"
           id="tspan4746">https://aorliche.github.io/</tspan></text></g></g></svg>
