<?xml version="1.0" encoding="UTF-8" standalone="no"?>
<!-- Created with Inkscape (http://www.inkscape.org/) -->

<svg
   width="210mm"
   height="297mm"
   viewBox="0 0 210 297"
   version="1.1"
   id="svg5"
   xml:space="preserve"
   inkscape:version="1.2.1 (9c6d41e410, 2022-07-14, custom)"
   sodipodi:docname="receipt.svg"
   xmlns:inkscape="http://www.inkscape.org/namespaces/inkscape"
   xmlns:sodipodi="http://sodipodi.sourceforge.net/DTD/sodipodi-0.dtd"
   xmlns:xlink="http://www.w3.org/1999/xlink"
   xmlns="http://www.w3.org/2000/svg"
   xmlns:svg="http://www.w3.org/2000/svg"><sodipodi:namedview
     id="namedview7"
     pagecolor="#ffffff"
     bordercolor="#666666"
     borderopacity="1.0"
     inkscape:showpageshadow="2"
     inkscape:pageopacity="0.0"
     inkscape:pagecheckerboard="0"
     inkscape:deskcolor="#d1d1d1"
     inkscape:document-units="mm"
     showgrid="true"
     inkscape:zoom="0.73673541"
     inkscape:cx="408.55916"
     inkscape:cy="552.43714"
     inkscape:window-width="1364"
     inkscape:window-height="695"
     inkscape:window-x="0"
     inkscape:window-y="0"
     inkscape:window-maximized="1"
     inkscape:current-layer="layer1"
     showguides="false"><inkscape:grid
       type="xygrid"
       id="grid283" /></sodipodi:namedview><defs
     id="defs2"><linearGradient
       y2="22.425306"
       x2="111.07475"
       y1="68.637009"
       x1="110.77299"
       gradientUnits="userSpaceOnUse"
       id="linearGradient859"
       xlink:href="#linearGradient2890"
       inkscape:collect="always"
       gradientTransform="matrix(0.81280551,0,0,0.81280551,21.045636,5.8736754)" /><linearGradient
       inkscape:collect="always"
       id="linearGradient2890"><stop
         style="stop-color:#ff8080;stop-opacity:1"
         offset="0"
         id="stop2886" /><stop
         id="stop2904"
         offset="0.85848391"
         style="stop-color:#ffffff;stop-opacity:1" /><stop
         style="stop-color:#ffffff;stop-opacity:1"
         offset="1"
         id="stop2888" /></linearGradient><linearGradient
       inkscape:collect="always"
       xlink:href="#linearGradient2902"
       id="linearGradient2896"
       gradientUnits="userSpaceOnUse"
       x1="94.857948"
       y1="37.207619"
       x2="94.921967"
       y2="65.051521"
       gradientTransform="matrix(0.81280551,0,0,0.81280548,19.408409,4.8605122)" /><linearGradient
       id="linearGradient2902"
       inkscape:collect="always"><stop
         id="stop2898"
         offset="0"
         style="stop-color:#ff8080;stop-opacity:1" /><stop
         id="stop2900"
         offset="1"
         style="stop-color:#ffffff;stop-opacity:1" /></linearGradient></defs><g
     inkscape:label="Layer 1"
     inkscape:groupmode="layer"
     id="layer1"><g
       id="g801"
       transform="translate(-7.7183084,-6.3500003)"><path
         id="rect39"
         style="opacity:0.999967;mix-blend-mode:normal;fill:url(#linearGradient859);fill-opacity:1;stroke:#916e6e;stroke-width:1.35656;stroke-miterlimit:4;stroke-dasharray:none;stroke-opacity:1"
         d="m 93.504815,24.707327 c 0.686261,0.448305 0.680782,3.047569 0.76529,5.301674 -0.71171,0.22507 -1.294987,0.464646 -1.587288,0.705903 -0.481693,1.008895 -1.979181,4.565306 -1.979181,4.565306 l -4.830747,2.12942 0.265039,6.526832 3.098968,0.987708 c 0,0 3.201259,0.320004 5.420055,1.328908 1.160426,1.31326 3.422854,3.936895 5.506159,5.521462 0.0338,0.663632 0.08,1.3976 0.14491,2.224101 l 0.80604,6.365863 h 4.70892 l -0.39652,-6.299023 c 2.64525,0.970236 6.01332,1.722121 9.98664,1.604299 3.19934,0 7.52414,-1.060955 10.83927,-2.039592 l -0.67457,7.271754 h 4.77698 l 1.17272,-8.33114 c 0,0 0.75311,-6.170739 0.75311,-8.592089 0,-1.013139 -0.0137,-1.85443 -0.0302,-2.602166 l 0.16086,-1.604308 -0.006,-4.025196 c 1.88195,2.721764 1.78179,5.001149 2.37509,8.419175 l 1.36901,-0.374388 c -0.36423,-2.446175 -0.4733,-6.276295 -2.00496,-9.586561 -0.95089,-1.58485 -1.90183,-2.603148 -1.90183,-2.603148 -0.79244,-0.749891 -3.63511,-2.611086 -5.10993,-3.061574 -2.70637,-0.826691 -5.82195,-1.494151 -12.51853,-1.494151 -7.5461,-0.365543 -12.35731,0.923459 -14.47503,1.679181 v -8.23e-4 c 0,0 -0.635519,0.10279 -1.504122,0.264173 l -2.004379,-3.408624 c -0.221724,0.05084 -3.125854,-0.87274 -3.125854,-0.87274 z"
         sodipodi:nodetypes="ccccccccccccccccccscccccccsccccccc" /><text
         xml:space="preserve"
         style="font-style:normal;font-variant:normal;font-weight:900;font-stretch:normal;font-size:20.6452px;line-height:1.35;font-family:'Noto Sans Gurmukhi UI';-inkscape-font-specification:'Noto Sans Gurmukhi UI Heavy';fill:url(#linearGradient2896);fill-opacity:1;stroke:#916e6e;stroke-width:1.97487;stroke-linecap:square;stroke-linejoin:miter;stroke-miterlimit:4;stroke-dasharray:none;stroke-opacity:1;paint-order:stroke markers fill"
         x="88.763664"
         y="55.397114"
         id="text49-2"
         transform="scale(1.1899955,0.84033932)"
         inkscape:export-xdpi="96"
         inkscape:export-ydpi="96"><tspan
           sodipodi:role="line"
           id="tspan47-4"
           x="88.763664"
           y="55.397114"
           style="font-style:normal;font-variant:normal;font-weight:900;font-stretch:normal;font-size:20.6452px;font-family:'Noto Sans Kannada UI';-inkscape-font-specification:'Noto Sans Kannada UI Heavy';fill:url(#linearGradient2896);fill-opacity:1;stroke:#916e6e;stroke-width:1.97487;stroke-linecap:square;stroke-linejoin:miter;stroke-miterlimit:4;stroke-dasharray:none;stroke-opacity:1;paint-order:stroke markers fill">$</tspan></text><text
         xml:space="preserve"
         style="font-size:8.46667px;line-height:1.25;font-family:sans-serif;-inkscape-font-specification:sans-serif;stroke-width:0.264583"
         x="74.487213"
         y="73.230972"
         id="text3768"><tspan
           sodipodi:role="line"
           id="tspan3766"
           style="font-size:8.46667px;stroke-width:0.264583"
           x="74.487213"
           y="73.230972">Receipt for services</tspan></text></g><g
       id="g4925"
       transform="translate(4.8974082,1.0583221)"><text
         xml:space="preserve"
         style="font-size:4.93889px;line-height:1.25;font-family:sans-serif;-inkscape-font-specification:sans-serif;stroke-width:0.264583"
         x="54.105564"
         y="94.353996"
         id="text3772"><tspan
           sodipodi:role="line"
           id="tspan3770"
           style="font-size:4.93889px;stroke-width:0.264583"
           x="54.105564"
           y="94.353996">Anton Orlichenko</tspan><tspan
           sodipodi:role="line"
           style="font-size:4.93889px;stroke-width:0.264583"
           x="54.105564"
           y="100.52761"
           id="tspan4528">David Hughes</tspan><tspan
           sodipodi:role="line"
           style="font-size:4.93889px;stroke-width:0.264583"
           x="54.105564"
           y="106.70122"
           id="tspan3776">Building and maintaining hunimal.org and zikzok.org</tspan><tspan
           sodipodi:role="line"
           style="font-size:4.93889px;stroke-width:0.264583"
           x="54.105564"
           y="112.87483"
           id="tspan4522" /><tspan
           sodipodi:role="line"
           style="font-size:4.93889px;stroke-width:0.264583"
           x="54.105564"
           y="119.04845"
           id="tspan4518">10/10/22</tspan><tspan
           sodipodi:role="line"
           style="font-size:4.93889px;stroke-width:0.264583"
           x="54.105564"
           y="125.22206"
           id="tspan3774">$100</tspan></text><text
         xml:space="preserve"
         style="font-size:4.93889px;line-height:1.25;font-family:sans-serif;-inkscape-font-specification:sans-serif;stroke-width:0.264583"
         x="24.203152"
         y="94.348351"
         id="text4506"><tspan
           sodipodi:role="line"
           id="tspan4504"
           style="font-style:normal;font-variant:normal;font-weight:bold;font-stretch:normal;font-size:4.93889px;font-family:sans-serif;-inkscape-font-specification:'sans-serif Bold';stroke-width:0.264583"
           x="24.203152"
           y="94.348351">From:</tspan><tspan
           sodipodi:role="line"
           style="font-style:normal;font-variant:normal;font-weight:bold;font-stretch:normal;font-size:4.93889px;font-family:sans-serif;-inkscape-font-specification:'sans-serif Bold';stroke-width:0.264583"
           x="24.203152"
           y="100.52197"
           id="tspan4526">To:</tspan><tspan
           sodipodi:role="line"
           style="font-style:normal;font-variant:normal;font-weight:bold;font-stretch:normal;font-size:4.93889px;font-family:sans-serif;-inkscape-font-specification:'sans-serif Bold';stroke-width:0.264583"
           x="24.203152"
           y="106.69557"
           id="tspan4508">Service:</tspan><tspan
           sodipodi:role="line"
           style="font-style:normal;font-variant:normal;font-weight:bold;font-stretch:normal;font-size:4.93889px;font-family:sans-serif;-inkscape-font-specification:'sans-serif Bold';stroke-width:0.264583"
           x="24.203152"
           y="112.86919"
           id="tspan4520" /><tspan
           sodipodi:role="line"
           style="font-style:normal;font-variant:normal;font-weight:bold;font-stretch:normal;font-size:4.93889px;font-family:sans-serif;-inkscape-font-specification:'sans-serif Bold';stroke-width:0.264583"
           x="24.203152"
           y="119.0428"
           id="tspan4510">Date:</tspan><tspan
           sodipodi:role="line"
           style="font-style:normal;font-variant:normal;font-weight:bold;font-stretch:normal;font-size:4.93889px;font-family:sans-serif;-inkscape-font-specification:'sans-serif Bold';stroke-width:0.264583"
           x="24.203152"
           y="125.21642"
           id="tspan4512">Amount:</tspan><tspan
           sodipodi:role="line"
           style="font-style:normal;font-variant:normal;font-weight:bold;font-stretch:normal;font-size:4.93889px;font-family:sans-serif;-inkscape-font-specification:'sans-serif Bold';stroke-width:0.264583"
           x="24.203152"
           y="131.39003"
           id="tspan4524" /></text></g><g
       inkscape:label="Layer 1"
       id="layer1-6"
       transform="matrix(0.73464489,0,0,0.73464489,11.231343,90.992477)"><rect
         style="fill:#ffffff;fill-opacity:1;stroke:none;stroke-width:0.41143;stroke-miterlimit:4;stroke-dasharray:none"
         id="rect1030"
         width="32.072342"
         height="32.072342"
         x="21.071318"
         y="81.64547"
         inkscape:export-xdpi="50.68541"
         inkscape:export-ydpi="50.68541" /><path
         id="rect897-1-1"
         style="fill:#f0b6a1;fill-opacity:1;stroke:#000000;stroke-width:1.95024;stroke-miterlimit:4;stroke-dasharray:none"
         d="m 98.863281,320.28711 c -2.522106,0.0283 -3.736328,0.66992 -3.736328,0.66992 -9.858134,2.36595 -12.259765,6.50781 -12.259765,6.50781 0,0 10.646385,5.78393 14.195312,10.91016 1.70795,4.14788 2.331643,7.72693 1.525113,16.48354 -0.957671,7.1131 -2.184481,8.85259 -2.618867,11.63758 -0.1315,0.84309 -1.099602,7.30134 -1.099048,8.47151 0.01204,23.37221 22.179962,42.13242 45.552182,42.12612 23.37221,-0.006 45.9719,-19.56595 42.3164,-43.46258 l -1.26269,-8.2544 c -0.44725,-2.92376 -0.71845,-6.89094 -1.48193,-11.5167 -0.29504,-8.22649 2.57859,-9.47892 4.25634,-13.55345 3.54892,-5.12623 14.19727,-10.91016 14.19727,-10.91016 0,0 -2.40359,-4.1399 -12.26172,-6.50586 0,0 -6.3451,-3.35114 -20.14649,4.92969 -2.8327,2.26616 -5.05513,5.65234 -6.75195,9.06055 -5.87385,-2.9264 -12.3477,-4.44691 -18.91016,-4.44141 -6.10894,0.006 -12.14427,1.33357 -17.6914,3.89258 -1.76374,-3.8556 -4.1943,-7.87106 -7.41211,-10.44531 -7.76328,-4.65797 -13.16745,-5.636 -16.410159,-5.59961 z"
         transform="scale(0.26458333)"
         sodipodi:nodetypes="sccccsccsscccccccccss" /><path
         style="fill:#ffffff;fill-opacity:1;stroke:#000000;stroke-width:0.526;stroke-miterlimit:4;stroke-dasharray:none"
         id="path835"
         sodipodi:type="arc"
         sodipodi:cx="32.802544"
         sodipodi:cy="94.346657"
         sodipodi:rx="2.8804967"
         sodipodi:ry="2.8804967"
         sodipodi:start="0"
         sodipodi:end="6.2821032"
         sodipodi:open="true"
         sodipodi:arc-type="arc"
         d="m 35.68304,94.346657 a 2.8804967,2.8804967 0 0 1 -2.879717,2.880496 2.8804967,2.8804967 0 0 1 -2.881276,-2.878938 2.8804967,2.8804967 0 0 1 2.878159,-2.882054 2.8804967,2.8804967 0 0 1 2.882833,2.877379" /><path
         d="m 43.913032,94.1409 a 2.8804967,2.8804967 0 0 1 -2.879717,2.880496 2.8804967,2.8804967 0 0 1 -2.881276,-2.878938 2.8804967,2.8804967 0 0 1 2.878159,-2.882054 2.8804967,2.8804967 0 0 1 2.882833,2.877379"
         sodipodi:arc-type="arc"
         sodipodi:open="true"
         sodipodi:end="6.2821032"
         sodipodi:start="0"
         sodipodi:ry="2.8804967"
         sodipodi:rx="2.8804967"
         sodipodi:cy="94.1409"
         sodipodi:cx="41.032536"
         sodipodi:type="arc"
         id="path835-6"
         style="fill:#ffffff;fill-opacity:1;stroke:#000000;stroke-width:0.526;stroke-miterlimit:4;stroke-dasharray:none" /><path
         style="fill:#ffdfd4;fill-opacity:1;stroke:#000000;stroke-width:0.49603;stroke-miterlimit:4;stroke-dasharray:none"
         id="path835-6-9"
         sodipodi:type="arc"
         sodipodi:cx="36.88876"
         sodipodi:cy="103.09565"
         sodipodi:rx="5.5319796"
         sodipodi:ry="3.9805868"
         sodipodi:start="0"
         sodipodi:end="6.2821032"
         sodipodi:open="true"
         sodipodi:arc-type="arc"
         d="m 42.420739,103.09565 a 5.5319796,3.9805868 0 0 1 -5.530483,3.98059 5.5319796,3.9805868 0 0 1 -5.533475,-3.97844 5.5319796,3.9805868 0 0 1 5.527489,-3.982736 5.5319796,3.9805868 0 0 1 5.536466,3.976276" /><path
         d="m 35.986175,103.35733 a 0.92079109,1.5758607 0 0 1 -0.920542,1.57586 0.92079109,1.5758607 0 0 1 -0.92104,-1.57501 0.92079109,1.5758607 0 0 1 0.920044,-1.57671 0.92079109,1.5758607 0 0 1 0.921537,1.57416"
         sodipodi:arc-type="arc"
         sodipodi:open="true"
         sodipodi:end="6.2821032"
         sodipodi:start="0"
         sodipodi:ry="1.5758607"
         sodipodi:rx="0.92079109"
         sodipodi:cy="103.35733"
         sodipodi:cx="35.065384"
         sodipodi:type="arc"
         id="path835-2"
         style="fill:#000000;fill-opacity:1;stroke:#000000;stroke-width:0.0630984" /><path
         style="fill:#000000;fill-opacity:1;stroke:#000000;stroke-width:0.0630984"
         id="path835-2-1"
         sodipodi:type="arc"
         sodipodi:cx="38.978123"
         sodipodi:cy="103.35733"
         sodipodi:rx="0.92079109"
         sodipodi:ry="1.5758607"
         sodipodi:start="0"
         sodipodi:end="6.2821032"
         sodipodi:open="true"
         sodipodi:arc-type="arc"
         d="m 39.898914,103.35733 a 0.92079109,1.5758607 0 0 1 -0.920542,1.57586 0.92079109,1.5758607 0 0 1 -0.92104,-1.57501 0.92079109,1.5758607 0 0 1 0.920043,-1.57671 0.92079109,1.5758607 0 0 1 0.921538,1.57416" /><path
         d="m 42.335272,95.525375 a 1.5478501,1.4526746 0 0 1 -1.547431,1.452675 1.5478501,1.4526746 0 0 1 -1.548269,-1.451889 1.5478501,1.4526746 0 0 1 1.546594,-1.45346 1.5478501,1.4526746 0 0 1 1.549105,1.451102"
         sodipodi:arc-type="arc"
         sodipodi:open="true"
         sodipodi:end="6.2821032"
         sodipodi:start="0"
         sodipodi:ry="1.4526746"
         sodipodi:rx="1.5478501"
         sodipodi:cy="95.525375"
         sodipodi:cx="40.787422"
         sodipodi:type="arc"
         id="path835-2-1-2"
         style="fill:#000000;fill-opacity:1;stroke:#000000;stroke-width:0.0785467" /><path
         style="fill:#000000;fill-opacity:1;stroke:#000000;stroke-width:0.0785466"
         id="path835-2-1-2-2"
         sodipodi:type="arc"
         sodipodi:cx="-32.97842"
         sodipodi:cy="95.684677"
         sodipodi:rx="1.5478503"
         sodipodi:ry="1.4526746"
         sodipodi:start="0"
         sodipodi:end="6.2821032"
         sodipodi:open="true"
         sodipodi:arc-type="arc"
         d="m -31.43057,95.684677 a 1.5478503,1.4526746 0 0 1 -1.547432,1.452675 1.5478503,1.4526746 0 0 1 -1.548268,-1.451889 1.5478503,1.4526746 0 0 1 1.546594,-1.45346 1.5478503,1.4526746 0 0 1 1.549105,1.451102"
         transform="scale(-1,1)" /></g><text
       xml:space="preserve"
       style="font-size:4.93889px;line-height:1.25;font-family:sans-serif;-inkscape-font-specification:sans-serif;stroke-width:0.264583"
       x="68.307495"
       y="162.52692"
       id="text4730"><tspan
         sodipodi:role="line"
         style="font-size:4.93889px;stroke-width:0.264583"
         x="68.307495"
         y="162.52692"
         id="tspan4732">&quot;Money should really be viewed through the lens of </tspan><tspan
         sodipodi:role="line"
         style="font-size:4.93889px;stroke-width:0.264583"
         x="68.307495"
         y="168.70053"
         id="tspan4734">information theory&quot; - Elon Musk</tspan></text><g
       id="g4798"
       transform="translate(10.523293,10.054176)"><text
         xml:space="preserve"
         style="font-size:4.93889px;line-height:1.25;font-family:sans-serif;-inkscape-font-specification:sans-serif;stroke-width:0.264583"
         x="94.765755"
         y="184.94835"
         id="text4744"><tspan
           sodipodi:role="line"
           id="tspan4742"
           style="font-size:4.93889px;text-align:center;text-anchor:middle;stroke-width:0.264583"
           x="94.765755"
           y="184.94835">aorliche@gmail.com</tspan><tspan
           sodipodi:role="line"
           style="font-size:4.93889px;text-align:center;text-anchor:middle;stroke-width:0.264583"
           x="94.765755"
           y="191.12196"
           id="tspan4748">507-254-1372</tspan><tspan
           sodipodi:role="line"
           style="font-size:4.93889px;text-align:center;text-anchor:middle;fill:#0000ff;stroke-width:0.264583"
           x="94.765755"
           y="197.29558"
           id="tspan4746">https://aorliche.github.io/</tspan></text></g><rect
       style="fill:none;stroke:#000000;stroke-width:0.436;stroke-linecap:square;stroke-dasharray:none;paint-order:stroke markers fill"
       id="rect396"
       width="177.87689"
       height="51.773067"
       x="17.000174"
       y="83.578003" /></g></svg>
